<svg xmlns="http://www.w3.org/2000/svg" xmlns:xlink="http://www.w3.org/1999/xlink" viewBox="0 0 500 250"><defs><style>.a{fill:url(#a);}.b{fill:none;}</style><linearGradient id="a" x1="123.43" y1="-143.13" x2="242.55" y2="109.23" gradientUnits="userSpaceOnUse"><stop offset="0" stop-color="#fff"/><stop offset="0.12" stop-color="#fef5ea"/><stop offset="0.38" stop-color="#fcdbb5"/><stop offset="0.74" stop-color="#f9b25f"/><stop offset="1" stop-color="#f7931e"/></linearGradient></defs><title>blank</title><polygon class="a" points="0 0 0 250 500 0 0 0"/><path class="b" d="M382.07,53.55l-.1-.09a37.07,37.07,0,0,1-8.39,2.86l-5.69,7.58-2.3,3.31,9.32-4.66A79.7,79.7,0,0,1,382,53.83Z"/><path class="b" d="M348.85,66.19l-.19-.09q-5.86,9.6-9.1,14.12l7.23-3.62a10.32,10.32,0,0,1-.11-1.54A26.16,26.16,0,0,1,348.85,66.19Z"/><path class="b" d="M158.11,170.94l8.81-4.41q.42-.62.85-1.29A25.58,25.58,0,0,0,158.11,170.94Z"/><path class="b" d="M283.27,80a67.76,67.76,0,0,0,21.33-3.26,60.74,60.74,0,0,0,19.06-9.48q4.43-3.4,5.1-7.08-.1-8-19.89-9.25a20.8,20.8,0,0,0-7.26,1L299,54.59a42.21,42.21,0,0,1,5.19,1.51q6.89,2.36,9,8.3a1.44,1.44,0,0,1-.47,1.89q-.57.19-1-.85-3.88-5.6-17-6.26l-.13.14L282,72.59a7.18,7.18,0,0,0-2.07,3.6,1.52,1.52,0,0,1-.94,1.23q-.75.38-1.69-.94l-1.5-2.83a2.69,2.69,0,0,1-.28-1.23,4.53,4.53,0,0,1,.94-2.64,88.94,88.94,0,0,1,7.46-9.53q-15.29,2.36-17.83,12Q268.55,79.69,283.27,80Z"/><path class="b" d="M333.66,37.86q-2-2.81-20.1-2.62l.47,1.28a1.76,1.76,0,0,1,.19.82,2.46,2.46,0,0,1-.8,1.73l-7.22,7.87q7.17.28,19.91-5.24A61.07,61.07,0,0,0,333.66,37.86Z"/><path d="M189,177.61q5.85-9.15,6.6-16.7-8.68,4.81-16.8,15.85-4.25,5.76-4.62,9.91a5.23,5.23,0,0,0,.57,3.68Q180.13,191.48,189,177.61Z"/><path d="M414.62,42.69a131.94,131.94,0,0,1-7.83,11.42v.09q2.45-2.07,5.94-4.62,2.83-2.07,4.53-2.08a7.85,7.85,0,0,1,4.11,2.78,5.83,5.83,0,0,1,1.18,4.58q-.1,4.81-7.93,10.38-5.1,3.59-9.53,3.59a10.51,10.51,0,0,1-2.08-.19l-.47-.09a29.49,29.49,0,0,0,5.94,5.94q2.92,2.93,5.76,2.93a2.34,2.34,0,0,0,1-.19,13.72,13.72,0,0,0,3.94-3.41c0-.23-.06-.44-.07-.68a20.1,20.1,0,0,1,3.21-10.88,33.51,33.51,0,0,1,16.8-14.76q.28-.09.94.38a14.82,14.82,0,0,1,4.81,5.66,3.89,3.89,0,0,1,1,1,2,2,0,0,1,0,1.89A19,19,0,0,1,442.08,62q-4.44,4.81-8.21,4.81-1.79-.19-4.15-2.93-4.91,6-5.28,11.51-.28,4.06,2.26,4.62,2.07.1,6.13-2.93,2.34-1.76,6.76-5.81l21.92-25.8a1,1,0,0,1,1.23-.28,4.38,4.38,0,0,1,.57.38q1.89,1.51,5.57,4.53A2.53,2.53,0,0,1,470,51.94a3,3,0,0,1-.75,1.23q-6.7,7.36-10.57,20-2.93,9.53-9.62,9.81-1.7-.1-4.91-2.12t-3.21-3.54c0-.5.32-.75.94-.75a1.58,1.58,0,0,1,.47.09,7.09,7.09,0,0,0,3.49,1q2,.09,4.34-2.83a79.62,79.62,0,0,0,5-10.47q4-9.53,4.53-10.76l-.09-.09-4.71,4.91q-4.05,4.16-7,7.56l-5.82,6.59-.42.53q-6,7.49-9,9.57a4.87,4.87,0,0,1-2.55.76,11.52,11.52,0,0,1-5-1.89,17.16,17.16,0,0,1-4.34-3.69,7.46,7.46,0,0,1-1.12-1.95A28.87,28.87,0,0,1,413.11,82a7.12,7.12,0,0,1-3.59,1.13q-2.74-.28-6.32-4.62-1.7-1.7-6.42-9.62a82.2,82.2,0,0,0-7.36,10.76,23.22,23.22,0,0,1-1.6,3.77,2,2,0,0,1-1.51-.66l-2.08-2.36a3.19,3.19,0,0,1-.75-2.64,3.83,3.83,0,0,1,.75-2.08l17.11-26.4-12.11,6.06s0,0,0,.05a3.63,3.63,0,0,1-.85,1.6q-1.61,2-7.88,10.43t-6.27,11.65q2-.57,10.47-9.72,3.68-4,6.79-7.64.47-.75.94-.47.66.38,0,1.32-8.59,12.17-13.31,18.31-2,2.55-3.49,2.26-6.89-2.83-6.89-8.4a11.51,11.51,0,0,1,2.17-6.51c1.42-2.1,2.74-4,4-5.73L365.6,67.2q-6.65,9.58-9.67,14.18a3.38,3.38,0,0,1-2.74,1.7,6.74,6.74,0,0,1-4.81-2.64,8.36,8.36,0,0,1-1.58-3.84l-7.23,3.62c-.62.87-1.18,1.61-1.66,2.2a2.46,2.46,0,0,1-2.36.66,5,5,0,0,1-.91-.4L195.91,152q-6,7.93-8.42,11.31h.09a29.41,29.41,0,0,1,7.27-4.81,3.82,3.82,0,0,1,1.51-.38,2.22,2.22,0,0,1,.94.28,9,9,0,0,1,3.68,2q1.89,1.32,1.6,4.43a14.1,14.1,0,0,1-1.13,4.91,53.38,53.38,0,0,1-9.72,14.82q-7.64,8.4-14.72,8.59a6.51,6.51,0,0,1-5.76-2.74,11.36,11.36,0,0,1-1.7-6.43,19.28,19.28,0,0,1,.56-4.23c-.81,1.06-1.69,2.17-2.63,3.35q-6,7.49-9,9.57a4.86,4.86,0,0,1-2.55.76,11.52,11.52,0,0,1-5-1.89,17.16,17.16,0,0,1-4.34-3.69,7.75,7.75,0,0,1-1.7-4.73,16.93,16.93,0,0,1,1-6.11l-12.63,6.32-10.62,11a1.17,1.17,0,0,1-1.79.38,10.29,10.29,0,0,1-3.74-3.25L0,250H500V0ZM347.06,154.21q4.44-9,6.89-13.12a2.23,2.23,0,0,1,.94-.94.55.55,0,0,1,.38-.09,2.18,2.18,0,0,1,.85.28q1.51.94,3.77,2.64a1.9,1.9,0,0,1,.28,1.32,4.73,4.73,0,0,1-.85,1.51q-6.89,6.7-10.66,9.72l-.94.76a.85.85,0,0,1-.38.09,1,1,0,0,1-.57-.19Q346.21,156,347.06,154.21ZM279.31,181.1a73.09,73.09,0,0,1-22.18,11.51,64.78,64.78,0,0,1-20,3.3q-10.76.09-16.89-6.32a10.35,10.35,0,0,1-2.93-5.76,5.13,5.13,0,0,1-.19-1.42q0-5.19,7.45-9.34a31.71,31.71,0,0,1,12-4L245,159q4.62-5.47,8.87-9.62-13.12,0-31,6.42c-.13.13-.06.22.19.28l2.55.66q.75.19.75.57c0,.25-.19.41-.57.47a19,19,0,0,1-5.94.19q-1.7-.28-3.11-2.74a9.39,9.39,0,0,1-1.32-4.15.85.85,0,0,1-.09-.38q0-.85,1.79-1.6,17.17-7.36,43-7.17,13.59.1,23.5,6.32a14.93,14.93,0,0,1,7.08,12.08Q291.67,171.47,279.31,181.1ZM315.07,193q-1.7-.1-4.91-2.12T307,187.33c0-.5.32-.76.94-.76a1.58,1.58,0,0,1,.47.1,7.09,7.09,0,0,0,3.49,1q2,.1,4.34-2.83a79.66,79.66,0,0,0,5-10.47q4-9.53,4.53-10.76l-.09-.09-4.71,4.91q-4.05,4.16-7,7.56l-5.82,6.59-.42.53q-6,7.49-9,9.57a4.86,4.86,0,0,1-2.55.76,11.52,11.52,0,0,1-5-1.89,17.16,17.16,0,0,1-4.34-3.69,7.75,7.75,0,0,1-1.7-4.73,20.11,20.11,0,0,1,3.21-10.88,33.51,33.51,0,0,1,16.8-14.76q.28-.09.94.38a14.82,14.82,0,0,1,4.81,5.66,3.88,3.88,0,0,1,1,1,2,2,0,0,1,0,1.89,19,19,0,0,1-3.87,5.57q-4.44,4.81-8.21,4.81-1.79-.19-4.15-2.93-4.91,6-5.28,11.51-.28,4.06,2.26,4.62,2.07.1,6.13-2.93,2.34-1.76,6.76-5.81l21.92-25.8a1,1,0,0,1,1.23-.28,4.57,4.57,0,0,1,.57.38q1.89,1.51,5.57,4.53a2.53,2.53,0,0,1,1.13,1.79,3,3,0,0,1-.75,1.23q-6.7,7.36-10.57,20Q321.77,192.71,315.07,193ZM362,194.4q-2.26,4.62-3.21,6.32a28.16,28.16,0,0,1-4,5.76A14.87,14.87,0,0,1,349,211.2a16.5,16.5,0,0,1-7.27,1.79q-4.34-.09-8.68-4.72-.38-.38-.19-.66a.47.47,0,0,1,.47.1,7.83,7.83,0,0,0,4.34,1.51q8.12.66,17.46-15.29,4.34-7.36,7.64-12.46l4.15-6.32-.19-.28q-4.44,5.66-10.1,14.06a5.69,5.69,0,0,1-3.11,2.55q-1.32.28-2.83-1.61a10,10,0,0,1-1.89-2.08,5.85,5.85,0,0,1-1.32-4.25c0-.61.08-1.21.16-1.8-2.87,4.09-5.32,7.47-7.33,10.1a3.62,3.62,0,0,1-2.74,1.61,7,7,0,0,1-4.72-2.65,8.76,8.76,0,0,1-3.49-6.43q-.19-2.08,2.17-7.47,3.68-8.61,12.46-19.49a.79.79,0,0,1,.75-.19c.19-.06.53.06,1,.38q4,3.11,4.25,4.44.09.38-.66,1.23a92.71,92.71,0,0,0-9.62,13.4q-5.29,9.06-5.19,12.36a.9.9,0,0,0,.47.19,1.5,1.5,0,0,0,.66-.19,109.85,109.85,0,0,0,13.52-13.23,32.93,32.93,0,0,1,9.51-12.35,36.63,36.63,0,0,1,11.51-6.89q.19-.28,1.13.47a9.88,9.88,0,0,1,3.07,3.16,7.5,7.5,0,0,1,1.46,4q0,.47-.57.66c-.38.06-.72-.19-1-.75l-.57-.94c-.19-.25-.5-.31-.94-.19q-11.8,4-18.78,16.89-2.36,4.34-2,7.55h.09l18.68-20.1a1.36,1.36,0,0,1,.85-.75c.19-.06.47.06.85.38l3.4,2.74a2.79,2.79,0,0,1,1.23,2.27,1.88,1.88,0,0,1-.33,1.18q-.33.42-.71.85t-2.74,3.35A96.71,96.71,0,0,0,362,194.4Zm54.16-22.93q-10.76,15.76-14.44,20.1a3.92,3.92,0,0,1-2.93,1.7,5.43,5.43,0,0,1-2.92-1.61l-2.17-1.51a5.29,5.29,0,0,1-2.08-4.43q-.1-4.06,7.74-16.51l-.19-.19-10.85,11.37q-9.53,10.25-9.72,11.75a2.16,2.16,0,0,1-.66,1.32,2.42,2.42,0,0,1-1.13-.56,7.83,7.83,0,0,1-1.89-2.54,3.94,3.94,0,0,1-.38-1.79,6.14,6.14,0,0,1,.75-3.1L386,166.38l-.09-.09-4.73,5.28q-2.16,2.37-5.34,6.54a.92.92,0,0,1-1.16.07q-.57-.47-.1-1.23,5.09-6.41,15.19-18.59.38-.75,1.23-.28,1,.57,2.69,1.6a6.76,6.76,0,0,1,2.22,2,1.81,1.81,0,0,1,.57,1.32,3.82,3.82,0,0,1-.28,1.32q-5.47,9.06-7.27,11.51.09.38.38.19,4.62-4.2,12-12.42l3.77-4.2q.85-1.31,1.51-1.31c.31-.12.75.06,1.32.56a27.81,27.81,0,0,1,4,3.94,1.25,1.25,0,0,1,.47,1,2,2,0,0,1-.47,1.31q-12.83,15.57-15.38,23.92a1.8,1.8,0,0,0,.57.09q3,.1,17.83-18,.28-.66.85-.38.57.1.57.47A.92.92,0,0,1,416.13,171.47Z"/><path d="M410.19,61.19A21.19,21.19,0,0,0,417.83,50q-5.09.94-12.64,9.15-1.42,1.61-5.38,6a6.56,6.56,0,0,0,1.6.19Q405,65.34,410.19,61.19Z"/><path d="M171.73,166.47a19,19,0,0,1-3.87,5.57q-4.44,4.81-8.21,4.81-1.79-.19-4.15-2.93-4.91,6-5.28,11.51-.28,4.06,2.26,4.62,2.07.1,6.13-2.93,2.64-2,7.93-6.89c.69-.8,2.83-3.16,6.39-7q1.07-1.68,6.35-9.61c1.09-1.62,2.15-3.23,3.2-4.83l-11,5.51.26.32A2,2,0,0,1,171.73,166.47Z"/><path d="M156.07,173.36a2.51,2.51,0,0,0,1.7.57,6.09,6.09,0,0,0,3.4-1.13,23.13,23.13,0,0,0,5.76-6.26l-8.81,4.41A17.43,17.43,0,0,0,156.07,173.36Z"/><path d="M226.65,183.93a2.64,2.64,0,0,1,.94-2.36,11.09,11.09,0,0,0,.94-1.23l4.06-5.95q-12.46,4.62-11.8,9.72.75,5.57,10.19,5.47Q226.93,187,226.65,183.93Z"/><path d="M435.38,62.79q3.21-2.17,6.61-7.55-8,2.83-11.7,8.12a2.51,2.51,0,0,0,1.7.57A6.09,6.09,0,0,0,435.38,62.79Z"/><path d="M272.13,150.15a95.41,95.41,0,0,0-13.4-.85h-.09a20.75,20.75,0,0,1,2.45,2.45,2.64,2.64,0,0,1,.57,1.6q0,.85-3.78,4.34t-8.4,8.4q-1.51,1.61-3,3.3a29.9,29.9,0,0,1,6.23,2.27,9.17,9.17,0,0,1,3.68,3.87,1.46,1.46,0,0,1,.1,1.13,1.59,1.59,0,0,1-.66.47,10.84,10.84,0,0,1-2.36-1.42,22.08,22.08,0,0,0-2.55-1.6,34.67,34.67,0,0,0-4-1.32,14.18,14.18,0,0,0-3.21-.28l-.1.09a54.51,54.51,0,0,0-6.22,8.12l-4.52,6.8a2.86,2.86,0,0,0-.39,1.22,1.37,1.37,0,0,0,.28.85q10.95.47,27.27-5.94,21-8.3,25.86-18.68a15.23,15.23,0,0,0,1.51-6.32Q287.42,152.32,272.13,150.15Z"/><path d="M124.08,188l-1.22.61c-.06.27-.13.54-.19.83Z"/><path d="M301.39,172.79q3.21-2.17,6.61-7.55-8,2.83-11.7,8.12a2.51,2.51,0,0,0,1.7.57A6.09,6.09,0,0,0,301.39,172.79Z"/><path d="M352.91,77.61l.09.09c2.92-2.89,5.52-5.59,7.84-8.13l-7.41,3.71A10.49,10.49,0,0,0,352.91,77.61Z"/><path d="M123.8,185.34q2.45-11.42,12.17-25l1.89-2.64a4.69,4.69,0,0,0,.85-2.74,2.25,2.25,0,0,0-.95-2,21.48,21.48,0,0,0-4.36-3.3,1.54,1.54,0,0,0-.95-.28,2.87,2.87,0,0,0-2.08,1.2Q111.29,169,94.49,187.08l-.13.05q2.74-2.45,11.13-16.7,9-15.19,11.51-20.76a7.43,7.43,0,0,0,.66-4.44,2.93,2.93,0,0,0-.94-1.6q-2.08-3.3-8.59-2.92-18.78.94-42.37,18.12-.94.66-.94,1.13a.38.38,0,0,0,.19.38,21.07,21.07,0,0,0,4,6.42A3.17,3.17,0,0,0,71.24,168a1.86,1.86,0,0,0,.85-.19l5-2.55a1.28,1.28,0,0,0,.57-.94.85.85,0,0,0-.09-.38q-.09-.66-.94-.47l-2.64.19q21.8-16.14,38.69-19.06.66-.09.85.19c.13.25,0,.57-.28.94l-8.12,9.34A102.58,102.58,0,0,0,88,181.19q-2.36,5.38-2,8a2.77,2.77,0,0,0,.75,2.36q3.11,4.43,4.34,4.06a11.25,11.25,0,0,0,2.45-2.46q12-13.87,33.31-34.63-10.85,17.08-11.13,29.25a8.28,8.28,0,0,0,1.36,3.63l5.72-2.86A28.22,28.22,0,0,1,123.8,185.34Z"/><path d="M147.1,169.11q12.46-12.83,12.08-21.51-.47-10.19-9.34-12.46-2.46-.66-2.55.28a.39.39,0,0,0-.09.28.81.81,0,0,0,.28.57,18,18,0,0,1,1.42,7,40.08,40.08,0,0,1-3,13q-6.14,15.62-21.8,31.68l9.21-4.6Z"/><path d="M167.77,165.25q-.42.67-.85,1.29l4.55-2.27a3,3,0,0,0-.78-.72,14.83,14.83,0,0,0-4.81-5.66q-.66-.47-.94-.38a33.5,33.5,0,0,0-16.8,14.76,26,26,0,0,0-2.22,4.77l12.19-6.1A25.58,25.58,0,0,1,167.77,165.25Z"/><path d="M200,146.66a6,6,0,0,0,1.51-4.44,6.41,6.41,0,0,0-2.83-5,10.77,10.77,0,0,0-3.49-2q-.47-.19-.57,0h-.09a.4.4,0,0,0,0,.38,2.18,2.18,0,0,1,.47.85,3.24,3.24,0,0,1-.28,1.61q-.66,2.55-6.32,11.44-2.87,4.56-6,9.25L195.91,152Z"/><path d="M10.66,50.34a21.07,21.07,0,0,0,4,6.42A3.17,3.17,0,0,0,16.88,58a1.87,1.87,0,0,0,.85-.19l5-2.55a1.29,1.29,0,0,0,.57-.94.86.86,0,0,0-.09-.38q-.09-.66-.94-.47l-2.64.19Q41.42,37.5,58.31,34.58c.44-.06.72,0,.85.19s0,.57-.28.94l-8.12,9.34A102.58,102.58,0,0,0,33.68,71.19q-2.36,5.38-2,8a2.77,2.77,0,0,0,.75,2.36q3.11,4.43,4.34,4.06a11.25,11.25,0,0,0,2.45-2.46q12-13.87,33.31-34.63Q61.7,65.63,61.42,77.8q.57,4.44,5.1,6.89a1.17,1.17,0,0,0,1.79-.38L92.75,59.11q12.46-12.83,12.08-21.51-.47-10.19-9.34-12.46-2.46-.66-2.55.28a.38.38,0,0,0-.09.28.82.82,0,0,0,.28.57,18,18,0,0,1,1.42,7,40.07,40.07,0,0,1-3,13Q85.11,62.61,68.31,79.4a31.44,31.44,0,0,1,1.13-4.06q2.45-11.42,12.17-25L83.5,47.7A4.69,4.69,0,0,0,84.35,45a2.26,2.26,0,0,0-.95-2A21.5,21.5,0,0,0,79,39.68a1.54,1.54,0,0,0-.95-.28A2.87,2.87,0,0,0,76,40.59Q56.94,59,40.13,77.08l-.13.05q2.74-2.45,11.13-16.7,9-15.19,11.51-20.76a7.43,7.43,0,0,0,.66-4.44,2.92,2.92,0,0,0-.94-1.6q-2.08-3.3-8.59-2.93Q35,31.66,11.41,48.83q-.94.66-.94,1.13A.38.38,0,0,0,10.66,50.34Z"/><path d="M109.55,44.2q4.43-9,6.89-13.12a2.23,2.23,0,0,1,.94-.94.55.55,0,0,1,.38-.09,2.18,2.18,0,0,1,.85.28q1.51.94,3.77,2.64a1.89,1.89,0,0,1,.28,1.32,4.72,4.72,0,0,1-.85,1.51q-6.89,6.7-10.66,9.72l-.94.75a.84.84,0,0,1-.38.09,1,1,0,0,1-.57-.19Q108.7,46,109.55,44.2Zm55.86,2a1,1,0,0,0,.57.19.84.84,0,0,0,.38-.09l.94-.75q3.77-3,10.66-9.72a4.72,4.72,0,0,0,.85-1.51,1.89,1.89,0,0,0-.28-1.32q-2.26-1.7-3.77-2.64a2.18,2.18,0,0,0-.85-.28.55.55,0,0,0-.38.09,2.23,2.23,0,0,0-.94.94q-2.45,4.15-6.89,13.12Q164.84,46,165.41,46.19ZM91.9,74.38a8.76,8.76,0,0,0,3.49,6.43,7,7,0,0,0,4.72,2.65,3.62,3.62,0,0,0,2.74-1.61c2.09-2.73,4.65-6.28,7.67-10.59a12.77,12.77,0,0,0-.12,3.23q.38,4,2.36,5.57l2.74,1.7q2.26,1.42,3.21,1.23a4.58,4.58,0,0,0,4.15-2.08q1.95-2.23,6.54-9a12.35,12.35,0,0,0,0,2.55q.38,4,2.36,5.57l2.74,1.7q2.26,1.42,3.21,1.23a4.58,4.58,0,0,0,4.15-2.08q1.95-2.24,6.56-9a7.64,7.64,0,0,0-.33,2.45,8.76,8.76,0,0,0,3.49,6.43,7,7,0,0,0,4.72,2.65A3.62,3.62,0,0,0,159,81.85c2.08-2.73,4.64-6.26,7.65-10.55a14.47,14.47,0,0,0-.1,3q.28,3.59,5.85,7.74a2.24,2.24,0,0,0,1.7.38,3.66,3.66,0,0,0,1.42-1.6l1.13-2a77.46,77.46,0,0,1,5.66-8.59q2.26-3,4.53-5.94H187q-4.81,7.87-4.53,12.52a7.78,7.78,0,0,0,2.45,5.31,3.17,3.17,0,0,0,1.13.85,2.6,2.6,0,0,0,1.7.47,2.71,2.71,0,0,0,2.55-1.33q7.79-11.37,10.76-15.6c1.61-2,3-3.69,4.17-4.94l4.69-5.31.09.09-9.62,15.57q-2.64,4.25-2.26,5.94A8.56,8.56,0,0,0,200,82.8q.94,1.23,1.6,1.13a18.87,18.87,0,0,0,1.51-4.06q6.13-8.11,20.1-22.46l-10.1,17.86a5.76,5.76,0,0,0-.75,2.92,3.11,3.11,0,0,0,.66,2l1.7,2.26a3.18,3.18,0,0,0,1.79,1q.85-.19.57-1.32a3.28,3.28,0,0,1,.57-2Q219.77,76.5,236,59.4l.19.11-4.29,6.1q-3.75,5.48-3.37,8.88a6.74,6.74,0,0,0,1.23,4.35L232,81.67a4.21,4.21,0,0,0,3.4,1.79q1.89,0,3.59-3l13.21-18.78q.66-.94,0-1.13a.64.64,0,0,0-.47-.19c-.19,0-.35.13-.47.38q-3,4-10.66,12.36-5.95,6.51-7.64,6.13-.47-2.55,4.34-9.06,7.45-10.1,10.1-13.4a3.39,3.39,0,0,0,.85-2.17,2.25,2.25,0,0,0-.57-1.51,22.13,22.13,0,0,0-2.92-3.49,1.78,1.78,0,0,0-1.13-.47.8.8,0,0,0-.66.47q-3.68,3.21-15.76,16.23l-.19-.09,6.61-9.53a2.65,2.65,0,0,0,.19-3,13.5,13.5,0,0,0-3.68-4.44,1.26,1.26,0,0,0-.75-.28q-.76,0-1.51,1.13l-15.3,16.23-.09-.1,7.41-11.45a2.67,2.67,0,0,0,.34-1.22,1.78,1.78,0,0,0-.66-1.41q-4.15-3.75-5-3.75a.85.85,0,0,0-.75.47q-9.39,11.37-13.89,17.05c-2.87,3.29-4.67,5.32-5.36,6.07a74.8,74.8,0,0,1-7.17,7.08c-.19,0-.22-.13-.09-.38q1.42-4.91,9.25-15.66a1.54,1.54,0,0,0,.47-1.13q0-.75-1.13-1.7l-3.2-2.55q-1-.85-1.79,0L171.64,78.08q-.19.19-.28,0,.38-9.81,8.55-17.08a36.91,36.91,0,0,1,11.56-7.36,2.82,2.82,0,0,1,.66-.09,1,1,0,0,1,.47.38l1,1.32q.28.47.66.38a.65.65,0,0,0,.19-.47,3.33,3.33,0,0,0-.19-1.51q-2.45-5.47-5.66-7.08a.68.68,0,0,0-.57-.09q-1.13.57-.75.57a39,39,0,0,0-13.68,10.29,41.06,41.06,0,0,0-4.93,7.56A113.27,113.27,0,0,1,154.37,79a1.51,1.51,0,0,1-.66.19.91.91,0,0,1-.47-.19q-.1-3.3,5.19-12.36a92.74,92.74,0,0,1,9.63-13.4q.75-.85.66-1.23-.28-1.32-4.25-4.44-.76-.47-1-.38a.78.78,0,0,0-.75.19,93,93,0,0,0-11.52,17.45l-2.54,2.93q-10.29,11.89-12.93,11.42a6.11,6.11,0,0,1-.47-4.53q1-4.81,6.61-13.59,3.3-5.19,5-7.55L158,37.79a5.24,5.24,0,0,0,1.13-2.55,7.22,7.22,0,0,0-1.42-5q-2.46-3.68-4.81-4.06-.94-.19-.94.85a1,1,0,0,0,.09.47,9.78,9.78,0,0,1-1.32,6.23q-.94,1.79-4.06,6.79-10.95,17.27-11,17.46-3.49,5.95-4.44,7.93l-.12.28-1.39,1.61q-10.29,11.89-12.93,11.42a6.11,6.11,0,0,1-.47-4.53q1-4.81,6.61-13.59,3.3-5.19,5-7.55L139,37.79a5.24,5.24,0,0,0,1.13-2.55,7.22,7.22,0,0,0-1.42-5q-2.46-3.68-4.81-4.06-.94-.19-.94.85a1,1,0,0,0,.09.47,9.78,9.78,0,0,1-1.32,6.23q-.94,1.79-4.06,6.79-10.95,17.27-11,17.46c-1.65,2.81-2.87,4.95-3.66,6.43A114.89,114.89,0,0,1,98.22,79a1.51,1.51,0,0,1-.66.19.91.91,0,0,1-.47-.19q-.1-3.3,5.19-12.36a92.74,92.74,0,0,1,9.63-13.4q.75-.85.66-1.23-.28-1.32-4.25-4.44-.76-.47-1-.38a.78.78,0,0,0-.75.19Q97.75,58.29,94.07,66.9,91.71,72.3,91.9,74.38Zm172-.26q-.09-.57-.19-2.55-.09-4,3.49-8.4a22.68,22.68,0,0,1,5.66-4.53q6.23-3.77,16.23-4.34l16.61-18.4-.19-.19q-14.82,1.79-17.27,3c-.06.13,0,.22.19.28a9.9,9.9,0,0,1,2,.75c.06.19-.16.35-.66.47a18.45,18.45,0,0,1-4.91.09q-1.79-.28-2.17-2.74a27.88,27.88,0,0,1-.38-4.81,1.47,1.47,0,0,1,1-1.23q8.21-3.4,26.14-3.87a81.52,81.52,0,0,1,17.93,1.42q5.1.94,7.36,2.55,3.11,2.26,3,6.79.28,3.3-5.66,6.79A31.88,31.88,0,0,1,322,48.17v.09q8.11,2.26,9,11.89.66,7.93-9.15,15A57.1,57.1,0,0,1,305,83.22a68.12,68.12,0,0,1-19.2,3,32.27,32.27,0,0,1-13.12-2.74Q265.25,80.06,263.92,74.12ZM306.2,46.94q7.17.28,19.91-5.24a61.07,61.07,0,0,0,7.55-3.84q-2-2.81-20.1-2.62l.47,1.28a1.76,1.76,0,0,1,.19.82,2.46,2.46,0,0,1-.8,1.73Zm-40.1,25.29q2.46,7.46,17.17,7.74a67.76,67.76,0,0,0,21.33-3.26,60.74,60.74,0,0,0,19.06-9.48q4.43-3.4,5.1-7.08-.1-8-19.89-9.25a20.8,20.8,0,0,0-7.26,1L299,54.59a42.21,42.21,0,0,1,5.19,1.51q6.89,2.36,9,8.3a1.44,1.44,0,0,1-.47,1.89q-.57.19-1-.85-3.88-5.6-17-6.26l-.13.14L282,72.59a7.18,7.18,0,0,0-2.07,3.6,1.52,1.52,0,0,1-.94,1.23q-.75.38-1.69-.94l-1.5-2.83a2.69,2.69,0,0,1-.28-1.23,4.53,4.53,0,0,1,.94-2.64,88.94,88.94,0,0,1,7.46-9.53Q268.64,62.61,266.09,72.23Zm82.57-6.13.19.09a26.16,26.16,0,0,0-2.17,8.87,10.32,10.32,0,0,0,.11,1.54l6.64-3.32q1.38-4.48,6.08-10.77l4.25-5.66a5.05,5.05,0,0,0,1.6-2.74,2.2,2.2,0,0,0-.47-1.7,51.6,51.6,0,0,0-4.25-3.59q-.57-.47-.75-.28-.38.1-.47.75L335.07,78.36c-.19.13-.28.16-.28.09a12.63,12.63,0,0,1,.94-5.66,46.12,46.12,0,0,1,11.61-17.65,3.91,3.91,0,0,0,1.13-3.21,7.28,7.28,0,0,0-3.3-4.72q-1.51-1-2-.66c-.38.13-.5.35-.38.66a2.24,2.24,0,0,1-.38,1.42l-4.25,5.66q-8.3,11-8.78,17.36-.38,4.91,2.17,7.83l.75,1a7.09,7.09,0,0,0,2.29,2.15l4.93-2.46Q342.81,75.68,348.66,66.1Zm19.23-2.2,5.69-7.58A37.07,37.07,0,0,0,382,53.45l.1.09-.09.28a79.7,79.7,0,0,0-7.05,8.71l14.32-7.16q.23-2.81-5.09-5.8a4.68,4.68,0,0,0-2.45-.38l-3.3.76-.19-.38q.85-1.32,1.23-1.89l.28-.38q.94-1.6.66-2.17a4.7,4.7,0,0,0-2.64-3.3,2.93,2.93,0,0,0-1.6-.57,2,2,0,0,0-1.7.94q-3.87,4.06-4.34,7.93-.38,3.59,1.6,5.38L362,68.32l-1.15,1.26,4.75-2.38Zm48-23.28q2.36-3.68,2-5.85a8,8,0,0,0-3.4-5.19q-1.79-1.32-2.26-1.6-.66-.38-.85,0a.91.91,0,0,0-.19.47.82.82,0,0,0,.09.38,7.8,7.8,0,0,1-.57,3.3Q409,37.6,402,48.36l-.63,1,13.27-6.64Z"/></svg>